<mxfile host="app.diagrams.net" modified="2023-09-07T13:11:24.675Z" agent="Mozilla/5.0 (Windows NT 10.0; Win64; x64) AppleWebKit/537.36 (KHTML, like Gecko) Chrome/116.0.0.0 Safari/537.36" etag="uY4319KJFZV_AFAf-Mg5" version="21.7.2" type="device">
  <diagram id="AW3OrBCQwjyOdo3bwChp" name="Page-1">
    <mxGraphModel dx="819" dy="1616" grid="1" gridSize="10" guides="1" tooltips="1" connect="1" arrows="1" fold="1" page="1" pageScale="1" pageWidth="827" pageHeight="1169" math="0" shadow="0">
      <root>
        <mxCell id="0" />
        <mxCell id="1" parent="0" />
        <mxCell id="SW6BRf9NdE8UDbDrH991-26" value="kind: Issuer&lt;br&gt;metadata:&lt;br&gt;&amp;nbsp; name:&amp;nbsp;&lt;b style=&quot;border-color: var(--border-color);&quot;&gt;issuer-1&lt;/b&gt;&lt;br&gt;spec: ..." style="text;html=1;align=left;verticalAlign=top;whiteSpace=wrap;rounded=0;fontFamily=Courier New;spacing=5;fillColor=#EEEEEE;" parent="1" vertex="1">
          <mxGeometry x="474.5" y="-187.67000000000002" width="210" height="69.67" as="geometry" />
        </mxCell>
        <mxCell id="SW6BRf9NdE8UDbDrH991-5" value="gateway-shim creates the Certificate &lt;b&gt;&quot;cert-1&quot;&lt;/b&gt;" style="text;html=1;strokeColor=none;fillColor=none;align=left;verticalAlign=middle;whiteSpace=wrap;rounded=0;fontFamily=Courier New;" parent="1" vertex="1">
          <mxGeometry x="200" y="-20" width="210" height="30" as="geometry" />
        </mxCell>
        <mxCell id="SW6BRf9NdE8UDbDrH991-16" value="" style="group;fontFamily=Courier New;" parent="1" vertex="1" connectable="0">
          <mxGeometry x="77.5" y="30" width="225" height="130" as="geometry" />
        </mxCell>
        <mxCell id="SW6BRf9NdE8UDbDrH991-1" value="" style="rounded=0;whiteSpace=wrap;html=1;fillColor=#d5e8d4;strokeColor=#82b366;fontFamily=Courier New;" parent="SW6BRf9NdE8UDbDrH991-16" vertex="1">
          <mxGeometry width="225" height="130" as="geometry" />
        </mxCell>
        <mxCell id="SW6BRf9NdE8UDbDrH991-2" value="kind: Certificate&lt;br&gt;metadata:&lt;br&gt;&amp;nbsp; name: cert-1&lt;br&gt;spec:&lt;br&gt;&amp;nbsp; dnsNames:&lt;br&gt;&amp;nbsp; &amp;nbsp; - example.com&lt;br&gt;&amp;nbsp; issuerRef: &lt;b&gt;issuer-1&lt;/b&gt;&lt;br&gt;&amp;nbsp; secretName: &lt;b&gt;cert-1&lt;/b&gt;" style="text;html=1;strokeColor=none;fillColor=none;align=left;verticalAlign=top;whiteSpace=wrap;rounded=0;fontFamily=Courier New;spacing=5;" parent="SW6BRf9NdE8UDbDrH991-16" vertex="1">
          <mxGeometry y="0.6128571428571397" width="225" height="129.38714285714286" as="geometry" />
        </mxCell>
        <mxCell id="MYaeiiRs0e1uR92Mewc--82" value="&lt;div&gt;&lt;font&gt;DOES NOT EXIST YET&lt;/font&gt;&lt;/div&gt;" style="text;html=1;strokeColor=none;fillColor=none;align=center;verticalAlign=middle;whiteSpace=wrap;rounded=0;fontFamily=Courier New;fontColor=#757575;" parent="1" vertex="1">
          <mxGeometry x="474.5" y="-90" width="75" height="40" as="geometry" />
        </mxCell>
        <mxCell id="MYaeiiRs0e1uR92Mewc--84" value="CERT-MANAGER ISSUER" style="text;html=1;strokeColor=none;fillColor=none;align=left;verticalAlign=middle;whiteSpace=wrap;rounded=0;dashed=1;fontColor=#757575;fontFamily=Courier New;" parent="1" vertex="1">
          <mxGeometry x="474.5" y="-207.67" width="140" height="20" as="geometry" />
        </mxCell>
        <mxCell id="gfwWATJFP_jRYh0Kxk0O-1" value="" style="group;fontFamily=Courier New;" parent="1" vertex="1" connectable="0">
          <mxGeometry x="72.5" y="-240" width="347.5" height="210" as="geometry" />
        </mxCell>
        <mxCell id="gfwWATJFP_jRYh0Kxk0O-2" value="" style="rounded=0;whiteSpace=wrap;html=1;fillColor=#d5e8d4;strokeColor=#82b366;fontFamily=Courier New;" parent="gfwWATJFP_jRYh0Kxk0O-1" vertex="1">
          <mxGeometry width="345.4437869822485" height="210" as="geometry" />
        </mxCell>
        <mxCell id="gfwWATJFP_jRYh0Kxk0O-3" value="&lt;div&gt;apiVersion: gateway.networking.k8s.io/v1alpha2&lt;/div&gt;kind: Gateway&lt;br&gt;metadata:&lt;br&gt;&amp;nbsp; name: gateway-1&lt;br&gt;&amp;nbsp; annotations:&lt;br&gt;&amp;nbsp; &amp;nbsp;&amp;nbsp;cert-manager.io/issuer: issuer-1&lt;br&gt;&lt;div&gt;spec:&lt;/div&gt;&lt;div&gt;&amp;nbsp; listeners:&lt;/div&gt;&lt;div&gt;&amp;nbsp; &amp;nbsp; -&amp;nbsp;&lt;span style=&quot;background-color: initial;&quot;&gt;hostname: example.com&lt;/span&gt;&lt;/div&gt;&lt;div&gt;&amp;nbsp; &amp;nbsp; &amp;nbsp; tls:&lt;/div&gt;&lt;div&gt;&amp;nbsp; &amp;nbsp; &amp;nbsp; &amp;nbsp; mode: Terminate&lt;/div&gt;&lt;div&gt;&amp;nbsp; &amp;nbsp; &amp;nbsp; &amp;nbsp; certificateRefs:&lt;/div&gt;&lt;div&gt;&amp;nbsp; &amp;nbsp; &amp;nbsp; &amp;nbsp; &amp;nbsp; - name: cert-1&lt;/div&gt;" style="text;html=1;strokeColor=none;fillColor=none;align=left;verticalAlign=top;whiteSpace=wrap;rounded=0;fontFamily=Courier New;spacing=5;" parent="gfwWATJFP_jRYh0Kxk0O-1" vertex="1">
          <mxGeometry width="345.4437869822485" height="210" as="geometry" />
        </mxCell>
        <mxCell id="MYaeiiRs0e1uR92Mewc--83" value="" style="endArrow=none;html=1;dashed=1;startArrow=classic;startFill=1;fontColor=#757575;strokeColor=#B3B3B3;fontFamily=Courier New;rounded=0;exitX=0;exitY=0.5;exitDx=0;exitDy=0;" parent="gfwWATJFP_jRYh0Kxk0O-1" source="MYaeiiRs0e1uR92Mewc--82" edge="1">
          <mxGeometry width="50" height="50" relative="1" as="geometry">
            <mxPoint x="206.61801801801784" y="223.875" as="sourcePoint" />
            <mxPoint x="185.5" y="190" as="targetPoint" />
            <Array as="points">
              <mxPoint x="365.5" y="190" />
            </Array>
          </mxGeometry>
        </mxCell>
        <mxCell id="gfwWATJFP_jRYh0Kxk0O-7" value="" style="edgeStyle=orthogonalEdgeStyle;rounded=0;orthogonalLoop=1;jettySize=auto;html=1;exitX=0.341;exitY=0.998;exitDx=0;exitDy=0;exitPerimeter=0;" parent="1" source="gfwWATJFP_jRYh0Kxk0O-3" target="SW6BRf9NdE8UDbDrH991-2" edge="1">
          <mxGeometry relative="1" as="geometry">
            <Array as="points" />
          </mxGeometry>
        </mxCell>
        <mxCell id="gfwWATJFP_jRYh0Kxk0O-4" value="user creates a Gateway&amp;nbsp;&lt;b&gt;&quot;gateway-1&quot;&lt;/b&gt; with cert-manager annotations" style="text;html=1;strokeColor=none;fillColor=none;align=left;verticalAlign=middle;whiteSpace=wrap;rounded=0;fontFamily=Courier New;" parent="1" vertex="1">
          <mxGeometry x="173.58999999999997" y="-300" width="190.47" height="45.78" as="geometry" />
        </mxCell>
        <mxCell id="ZZ92xPVQZ7XZ2kMUYkGM-2" value="" style="endArrow=classic;html=1;fontFamily=Courier New;dashed=1;edgeStyle=elbowEdgeStyle;rounded=0;entryX=0;entryY=0.5;entryDx=0;entryDy=0;" parent="1" target="SW6BRf9NdE8UDbDrH991-26" edge="1">
          <mxGeometry width="50" height="50" relative="1" as="geometry">
            <mxPoint x="342" y="-153" as="sourcePoint" />
            <mxPoint x="632" y="-153" as="targetPoint" />
          </mxGeometry>
        </mxCell>
        <mxCell id="gfwWATJFP_jRYh0Kxk0O-10" value="kind: Secret&lt;br&gt;metadata:&lt;br&gt;&amp;nbsp; name:&amp;nbsp;&lt;b style=&quot;border-color: var(--border-color);&quot;&gt;cert&lt;/b&gt;&lt;b&gt;-1&lt;/b&gt;&lt;br&gt;stringData:&lt;br&gt;&amp;nbsp; tls.crt: |&lt;br&gt;&lt;b&gt;&amp;nbsp; &amp;nbsp; -----BEGIN CERTIFICATE-----&lt;br&gt;&amp;nbsp; &amp;nbsp; (leaf)&lt;br&gt;&amp;nbsp; &amp;nbsp; -----END CERTIFICATE-----&lt;br&gt;&lt;/b&gt;&lt;b&gt;&amp;nbsp; &amp;nbsp; -----BEGIN CERTIFICATE-----&lt;br&gt;&amp;nbsp; &amp;nbsp; (intermediate)&lt;br&gt;&amp;nbsp; &amp;nbsp; -----END CERTIFICATE-----&lt;/b&gt;&lt;br&gt;&amp;nbsp; tls.key: |&lt;br&gt;&amp;nbsp; &lt;b&gt;&amp;nbsp;&amp;nbsp;&lt;span&gt;-----BEGIN PRIVATE KEY-----&lt;br&gt;&amp;nbsp; &amp;nbsp; AaBbCcDd0&lt;br&gt;&lt;/span&gt;&lt;/b&gt;&lt;div&gt;&lt;b&gt;&amp;nbsp; &amp;nbsp; -----END PRIVATE KEY-----&lt;/b&gt;&lt;/div&gt;" style="text;html=1;strokeColor=#b85450;fillColor=#f8cecc;align=left;verticalAlign=top;whiteSpace=wrap;rounded=0;fontFamily=Courier New;spacingTop=0;spacingBottom=0;spacing=5;" parent="1" vertex="1">
          <mxGeometry x="357.13" y="337" width="250" height="233" as="geometry" />
        </mxCell>
        <mxCell id="gfwWATJFP_jRYh0Kxk0O-11" value="" style="endArrow=none;html=1;fontFamily=Courier New;fontColor=#757575;strokeColor=#000000;endFill=0;startArrow=classic;startFill=1;entryX=0.33;entryY=0.985;entryDx=0;entryDy=0;entryPerimeter=0;exitX=0.477;exitY=0;exitDx=0;exitDy=0;exitPerimeter=0;" parent="1" source="gfwWATJFP_jRYh0Kxk0O-12" target="MYaeiiRs0e1uR92Mewc--26" edge="1">
          <mxGeometry width="50" height="50" relative="1" as="geometry">
            <mxPoint x="655" y="320" as="sourcePoint" />
            <mxPoint x="810" y="160" as="targetPoint" />
          </mxGeometry>
        </mxCell>
        <mxCell id="gfwWATJFP_jRYh0Kxk0O-12" value="kind: Certificate&lt;br&gt;spec:&lt;br&gt;&amp;nbsp; issuerRef:&amp;nbsp;&lt;b style=&quot;border-color: var(--border-color);&quot;&gt;issuer-1&lt;/b&gt;&lt;br&gt;&amp;nbsp; secretName:&amp;nbsp;&lt;b style=&quot;border-color: var(--border-color);&quot;&gt;cert&lt;/b&gt;-1&lt;br&gt;status:&lt;br&gt;&amp;nbsp; revision: 1&lt;br&gt;&amp;nbsp; conditions:&lt;br&gt;&amp;nbsp; &amp;nbsp; - type: &lt;b&gt;Ready&lt;/b&gt;&lt;br&gt;&amp;nbsp; &amp;nbsp; &amp;nbsp; status: &lt;b&gt;&quot;True&quot;&lt;/b&gt;&lt;br&gt;&amp;nbsp; &amp;nbsp; &amp;nbsp; reason: &lt;b&gt;Issued&lt;/b&gt;&lt;br&gt;&amp;nbsp; &amp;nbsp; - type: Issuing&lt;br&gt;&amp;nbsp; &amp;nbsp; &amp;nbsp; status: &quot;True&quot;&lt;br&gt;&amp;nbsp; &amp;nbsp; &amp;nbsp; reason: Pending&lt;br&gt;&amp;nbsp; certificate: |&lt;b&gt;&lt;br&gt;&lt;/b&gt;&amp;nbsp; &amp;nbsp; -----BEGIN CERTIFICATE-----&lt;br&gt;&amp;nbsp; &amp;nbsp; (leaf)&lt;br&gt;&amp;nbsp; &amp;nbsp; -----END CERTIFICATE-----&lt;br&gt;&amp;nbsp; &amp;nbsp; -----BEGIN CERTIFICATE-----&lt;br&gt;&amp;nbsp; &amp;nbsp; (intermediate)&lt;br&gt;&amp;nbsp; &amp;nbsp; -----END CERTIFICATE-----&lt;b&gt;&lt;br&gt;&lt;/b&gt;" style="text;html=1;strokeColor=#82b366;fillColor=#d5e8d4;align=left;verticalAlign=top;whiteSpace=wrap;rounded=0;fontFamily=Courier New;spacingTop=0;spacingBottom=0;spacing=5;" parent="1" vertex="1">
          <mxGeometry x="77.5" y="337" width="234.87" height="303" as="geometry" />
        </mxCell>
        <mxCell id="gfwWATJFP_jRYh0Kxk0O-16" value="" style="endArrow=none;html=1;fontFamily=Courier New;fontColor=#757575;strokeColor=#000000;endFill=0;startArrow=classic;startFill=1;" parent="1" target="SW6BRf9NdE8UDbDrH991-2" edge="1">
          <mxGeometry width="50" height="50" relative="1" as="geometry">
            <mxPoint x="190" y="210" as="sourcePoint" />
            <mxPoint x="218" y="310" as="targetPoint" />
          </mxGeometry>
        </mxCell>
        <mxCell id="gfwWATJFP_jRYh0Kxk0O-17" value="" style="endArrow=none;html=1;fontFamily=Courier New;fontColor=#757575;strokeColor=#000000;endFill=0;startArrow=classic;startFill=1;exitX=0.21;exitY=0.012;exitDx=0;exitDy=0;exitPerimeter=0;entryX=0.546;entryY=0.985;entryDx=0;entryDy=0;entryPerimeter=0;" parent="1" source="gfwWATJFP_jRYh0Kxk0O-10" target="MYaeiiRs0e1uR92Mewc--26" edge="1">
          <mxGeometry width="50" height="50" relative="1" as="geometry">
            <mxPoint x="200" y="220" as="sourcePoint" />
            <mxPoint x="200" y="180" as="targetPoint" />
          </mxGeometry>
        </mxCell>
        <mxCell id="xtWDsuV548OkmV7Q842l-5" value="" style="edgeStyle=orthogonalEdgeStyle;rounded=0;orthogonalLoop=1;jettySize=auto;html=1;" parent="1" edge="1">
          <mxGeometry relative="1" as="geometry">
            <mxPoint x="169.59" y="-300" as="sourcePoint" />
            <mxPoint x="169.53" y="-240" as="targetPoint" />
            <Array as="points">
              <mxPoint x="169.59" y="-280" />
              <mxPoint x="169.59" y="-280" />
            </Array>
          </mxGeometry>
        </mxCell>
        <UserObject label="Certificate Flow [1]" link="/docs/usage/certificate/" linkTarget="_blank" id="MYaeiiRs0e1uR92Mewc--26">
          <mxCell style="rounded=0;whiteSpace=wrap;html=1;align=center;fontFamily=Courier New;strokeColor=none;fillColor=#EEEEEE;fontSize=20;fontColor=#898989;" parent="1" vertex="1">
            <mxGeometry x="77.5" y="200" width="340" height="100" as="geometry" />
          </mxCell>
        </UserObject>
        <UserObject label="" link="/docs/usage/certificate/" linkTarget="_blank" id="G6DhhnYIuvKHuKb8DNrd-2">
          <mxCell style="shape=image;verticalLabelPosition=bottom;labelBackgroundColor=default;verticalAlign=top;aspect=fixed;imageAspect=0;image=data:image/svg+xml,PHN2ZyB4bWxucz0iaHR0cDovL3d3dy53My5vcmcvMjAwMC9zdmciIHZpZXdCb3g9IjAgMCA0OCA0OCIgaGVpZ2h0PSI0OCIgd2lkdGg9IjQ4Ij48cGF0aCBkPSJNMzggMzhIMTBWMTBoMTRWNkgxMGMtMi4yMSAwLTQgMS43OS00IDR2MjhjMCAyLjIxIDEuNzkgNCA0IDRoMjhjMi4yMSAwIDQtMS43OSA0LTRWMjRoLTR2MTR6TTI4IDZ2NGg3LjE3TDE1LjUxIDI5LjY2bDIuODMgMi44M0wzOCAxMi44M1YyMGg0VjZIMjh6IiBmaWxsPSIjRkZGRiIvPjwvc3ZnPg==;" vertex="1" parent="1">
            <mxGeometry x="385.5" y="204" width="27.5" height="27.5" as="geometry" />
          </mxCell>
        </UserObject>
      </root>
    </mxGraphModel>
  </diagram>
</mxfile>
